<svg width="30" height="30" viewBox="0 0 30 30" fill="none" xmlns="http://www.w3.org/2000/svg">
<path d="M21.0624 0H8.93614C6.56672 0.00278448 4.29517 0.945368 2.61988 2.62094C0.944588 4.29651 0.00238609 6.56822 0 8.93764L0 21.0639C0.00278448 23.4333 0.945368 25.7048 2.62094 27.3801C4.29651 29.0554 6.56822 29.9976 8.93764 30H21.0639C23.4333 29.9972 25.7048 29.0546 27.3801 27.3791C29.0554 25.7035 29.9976 23.4318 30 21.0624V8.93614C29.9972 6.56672 29.0546 4.29517 27.3791 2.61988C25.7035 0.944588 23.4318 0.00238609 21.0624 0V0ZM26.9827 21.0624C26.9827 21.8398 26.8296 22.6097 26.5321 23.328C26.2345 24.0463 25.7984 24.6989 25.2487 25.2487C24.6989 25.7984 24.0463 26.2345 23.328 26.5321C22.6097 26.8296 21.8398 26.9827 21.0624 26.9827H8.93614C7.36622 26.9823 5.86074 26.3584 4.75078 25.2482C3.64082 24.1379 3.01728 22.6323 3.01728 21.0624V8.93614C3.01768 7.36622 3.64161 5.86074 4.75184 4.75078C5.86208 3.64082 7.36772 3.01728 8.93764 3.01728H21.0639C22.6338 3.01768 24.1393 3.64161 25.2492 4.75184C26.3592 5.86208 26.9827 7.36772 26.9827 8.93764V21.0639V21.0624Z" fill="black"/>
<path d="M14.9988 7.24219C12.9423 7.24537 10.971 8.0638 9.51702 9.51808C8.06302 10.9724 7.24497 12.9438 7.24219 15.0003C7.24457 17.0572 8.06266 19.0293 9.51702 20.484C10.9714 21.9386 12.9433 22.7571 15.0003 22.7598C17.0575 22.7575 19.0298 21.9392 20.4845 20.4845C21.9392 19.0298 22.7575 17.0575 22.7598 15.0003C22.7567 12.9433 21.9378 10.9715 20.4829 9.51746C19.028 8.06338 17.0557 7.24568 14.9988 7.24369V7.24219ZM14.9988 19.7426C13.7414 19.7426 12.5356 19.2431 11.6465 18.354C10.7574 17.4649 10.258 16.2591 10.258 15.0018C10.258 13.7444 10.7574 12.5386 11.6465 11.6495C12.5356 10.7604 13.7414 10.261 14.9988 10.261C16.2561 10.261 17.4619 10.7604 18.351 11.6495C19.2401 12.5386 19.7396 13.7444 19.7396 15.0018C19.7396 16.2591 19.2401 17.4649 18.351 18.354C17.4619 19.2431 16.2561 19.7426 14.9988 19.7426Z" fill="black"/>
<path d="M22.7738 9.15891C23.8004 9.15891 24.6325 8.32672 24.6325 7.30016C24.6325 6.2736 23.8004 5.44141 22.7738 5.44141C21.7472 5.44141 20.915 6.2736 20.915 7.30016C20.915 8.32672 21.7472 9.15891 22.7738 9.15891Z" fill="black"/>
</svg>
