<svg width="34" height="43" viewBox="0 0 34 43" fill="none" xmlns="http://www.w3.org/2000/svg">
<path d="M17 21.5C14.6625 21.5 12.75 19.565 12.75 17.2C12.75 14.835 14.6625 12.9 17 12.9C19.3375 12.9 21.25 14.835 21.25 17.2C21.25 19.565 19.3375 21.5 17 21.5ZM29.75 17.63C29.75 9.8255 24.1187 4.3 17 4.3C9.88125 4.3 4.25 9.8255 4.25 17.63C4.25 22.661 8.39375 29.326 17 37.281C25.6063 29.326 29.75 22.661 29.75 17.63ZM17 0C25.925 0 34 6.923 34 17.63C34 24.768 28.3263 33.2175 17 43C5.67375 33.2175 0 24.768 0 17.63C0 6.923 8.075 0 17 0Z" fill="black"/>
</svg>
